# xmcd
#
# Track frame offsets: 
#        150
#        14246
#        38038
#        60503
#        80670
#        102976
#        127791
#        148628
#        170653
#        186045
#        204838
#        229442
#        248760
#        273182
#        298389
#        315416
#        342121
#
# Disc length: 4783 seconds
#
# Revision: 0
# Processed by: cddbd v1.5.2PL0 Copyright (c) Steve Scherf et al.
# Submitted via: ExactAudioCopy v1.3
#
DISCID=f512ad11
DTITLE=Various Artist - Akella Presents - vol.195 - Black Pure Blues 
DTITLE=CD1
DYEAR=2019
DGENRE=Blues
TTITLE0=Chuck Beattie - Call Of The Wild
TTITLE1=Guitar Shorty - Hard Life
TTITLE2=Syl Johnson - Diff'rent Strokes [B.E.T.]
TTITLE3=Earl Thomas - Don't Do Me This Way Again
TTITLE4=Billy Branch and The Sons Of Blues - Hate To See You Go
TTITLE5=Frank Bey - Where You Been So Long
TTITLE6=Roy Roberts - I've Got Troubles
TTITLE7=Willie Cobbs - Mississippi
TTITLE8=Daddy Mack Blues Band - Trickle Down Blues
TTITLE9=Linsey Alexander - Booze and Blues
TTITLE10=Al Coffee McDaniel - Tricked By The Devil
TTITLE11=Zac Harmon - Baby Pleez
TTITLE12=Christone Kingfish Ingram - Love Ain't My Favorite Word
TTITLE13=Aron Burton - The Blues Is To Me
TTITLE14=Kenny 'Blues Boss' Wayne - Make Up Your Mind
TTITLE15=Johnny Rodgers - It's a Man's World
TTITLE16=Jimmi Mayes - That Woman And My Wife
EXTD=
EXTT0=
EXTT1=
EXTT2=
EXTT3=
EXTT4=
EXTT5=
EXTT6=
EXTT7=
EXTT8=
EXTT9=
EXTT10=
EXTT11=
EXTT12=
EXTT13=
EXTT14=
EXTT15=
EXTT16=
PLAYORDER=
